# xmcd CD database file
#
# Track frame offsets:
#	150
#	21000
#	40935
#	62103
#	84763
#	105669
#	125410
#	145858
#	167438
#	183020
#
# Disc length: 2715 seconds
#
# Revision: 1
# Processed by: cddbd v1.4PL0 Copyright (c) Steve Scherf et al.
# Submitted via: CDex 1.50beta9
#
DISCID=730a990a
DTITLE=The Prodigal Sons - Stranger things have happened
DYEAR=1900
DGENRE=Jazz
TTITLE0=Family of eyes
TTITLE1=Just say you love me
TTITLE2=Where we wish to remain
TTITLE3=Three foot blasts
TTITLE4=Let it all go
TTITLE5=Say goodbye to me
TTITLE6=Peaceful face
TTITLE7=Beautiful day
TTITLE8=You're the only one
TTITLE9=Little Miss Grace
EXTD=
EXTT0=
EXTT1=
EXTT2=
EXTT3=
EXTT4=
EXTT5=
EXTT6=
EXTT7=
EXTT8=
EXTT9=
PLAYORDER=
